<?xml version="1.0" encoding="UTF-8"?>
<svg width="197px" height="197px" viewBox="0 0 197 197" version="1.1" xmlns="http://www.w3.org/2000/svg" xmlns:xlink="http://www.w3.org/1999/xlink">
    <!-- Generator: Sketch 52.6 (67491) - http://www.bohemiancoding.com/sketch -->
    <title>Group 6</title>
    <desc>Created with Sketch.</desc>
    <g id="Page-1" stroke="none" stroke-width="1" fill="none" fill-rule="evenodd">
        <g id="Categories" transform="translate(-423.000000, -151.000000)">
            <g id="Group-2" transform="translate(423.000000, 151.000000)">
                <g id="Group-4">
                    <g id="Group-3">
                        <g id="Group-6">
                            <rect id="Rectangle" fill="#393E46" x="8.52651283e-14" y="0" width="196.8" height="196.8" rx="98.4"></rect>
                            <g id="001-breath" transform="translate(64.800000, 57.600000)" fill="#29A19C" stroke="#29A19C" stroke-width="0.8">
                                <path d="M60.3663271,43.4467478 C61.166207,42.2205776 60.9717156,40.6910855 59.7879405,38.9012128 C59.1950746,38.0045197 58.6116006,37.1390567 58.0531718,36.310289 C55.8691555,33.0709512 53.6100038,29.7191851 53.6100038,28.4239184 C53.6100038,27.9851361 53.6487455,27.394888 53.6917919,26.7156342 C53.8780653,23.7737627 54.1324302,19.7458659 52.6023274,17.2349692 C52.2426946,16.6451114 52.567499,15.8147822 53.3951633,14.0619952 C54.2435681,12.2631438 55.2997695,10.0235582 55.2997695,7.11682052 C55.2997695,0.943028295 38.1669231,0.250111368 30.6733329,0.243865356 C29.7947956,0.129875642 24.4723077,-0.470912612 18.4826011,0.781412741 C9.75827597,2.60563854 3.87227196,7.49158123 1.46363192,14.9110624 C-2.58468345,27.3800537 2.6834095,37.1870729 6.16938276,43.6778502 C7.34220066,45.860441 8.45005768,47.922796 8.45005768,48.8979545 C8.45005768,53.652731 8.30800466,56.6609664 6.3423509,58.3352879 C3.32832238,60.9027891 2.7702849,64.3025714 2.74797905,64.4458393 C2.64231978,65.1297775 2.99412602,65.8012238 3.61634172,66.1049361 L36.7143038,82.2395556 C36.933449,82.3457378 37.171378,82.4 37.4085244,82.4 C37.6848038,82.4 37.9606919,82.3277805 38.2068388,82.1845126 C38.663913,81.9182763 38.9566283,81.4404564 38.9875435,80.9138396 L39.5698434,70.8866485 C39.6015412,70.3381706 39.3452196,69.8131152 38.8928414,69.5004243 L36.5804687,67.8987126 L36.5804687,66.061214 C38.184533,66.5093654 40.5325168,66.9961639 43.1783032,66.9961639 C49.3061495,66.9961639 52.8202986,65.1461733 52.8202986,61.920889 C52.8202986,59.6118165 53.0590103,55.5901657 53.0609669,55.549957 C53.09423,54.9983561 52.8355605,54.4701778 52.379269,54.1559253 L46.6971482,50.2556813 L53.2671982,49.5038177 C54.0400762,49.4159831 54.6329421,48.7796707 54.6669878,48.0051652 L54.7883003,45.2143691 C56.676862,45.3150861 59.2745147,45.1210693 60.3663271,43.4467478 Z M53.5407383,41.9067155 C53.096578,41.837619 52.6375472,41.9543414 52.2853496,42.2377541 C51.9339347,42.5227284 51.7210508,42.9431631 51.7018756,43.3944374 L51.5660839,46.5229086 L42.1440163,47.6011264 C41.4885375,47.6749074 40.9488926,48.1480428 40.7900123,48.7855263 C40.6303494,49.4249618 40.884323,50.093285 41.4274899,50.4676554 L49.8544037,56.2514622 C49.7820076,57.5994296 49.6575644,60.1762999 49.6575644,61.9197179 C49.6575644,62.8640368 47.2340538,63.8403665 43.1779118,63.8403665 C39.0372424,63.8403665 35.6518412,62.4295486 35.6181867,62.4154951 C35.1294148,62.2074248 34.569812,62.2601255 34.127217,62.552517 C33.6846221,62.8437372 33.4177346,63.3379529 33.4177346,63.8665217 L33.4177346,68.7216247 C33.4177346,69.2377014 33.6717082,69.7229384 34.0970846,70.0168914 L36.3605409,71.5865922 L35.9668623,78.3639053 L6.19990655,63.8524681 C6.53801621,62.9897378 7.19114704,61.760835 8.39566272,60.7349275 C11.6120092,57.9933188 11.6120092,53.5754366 11.6120092,48.8975642 C11.6120092,47.1307236 10.4978909,45.0574381 8.95604818,42.1862246 C5.72365717,36.1681922 0.837894245,27.072828 4.47139915,15.8838787 C6.53253758,9.53636932 11.4374757,5.49910348 19.0496391,3.88646133 C24.9325125,2.64038198 30.2898289,3.37350761 30.3430498,3.38287663 C30.4170113,3.39224565 30.4929294,3.39849166 30.5668909,3.39849166 C42.5157804,3.39849166 52.137818,5.43312998 52.137818,7.11682052 C52.137818,9.31775891 51.2854999,11.1248082 50.5337537,12.7191027 C49.5926035,14.7135323 48.6197556,16.7762777 49.9013634,18.8757184 C50.9141271,20.5375479 50.6781547,24.2808608 50.5361017,26.5173234 C50.4883594,27.2750427 50.4480523,27.9343873 50.4480523,28.4243088 C50.4480523,30.6822421 52.5373665,33.781435 55.4292999,38.0712739 C55.9830327,38.8922341 56.5610281,39.75028 57.1495894,40.6387751 C57.6219254,41.3535531 57.6751464,41.7013779 57.7123228,41.7232389 C57.2752065,42.0929248 55.2375479,42.1885668 53.5407383,41.9067155 Z" id="Shape" fill-rule="nonzero"></path>
                                <path d="M78.9566314,38.0307692 C78.0863745,38.0307692 77.3807291,38.739479 77.3807291,39.615267 C77.3807291,40.4910549 78.0863745,41.1997647 78.9566314,41.1997647 C81.5638916,41.1997647 83.6847284,43.3321692 83.6847284,45.9536501 C83.6847284,48.5751309 81.5638916,50.7075354 78.9566314,50.7075354 L57.68,50.7075354 L57.68,53.8769231 L79.7449727,53.8769231 L79.7449727,53.7969138 C83.7155443,53.3929453 86.8369231,50.0513808 86.8369231,45.9540423 C86.8369231,41.5852996 83.3016749,38.0307692 78.9566314,38.0307692 Z" id="Path"></path>
                                <rect id="Rectangle" x="57.0461538" y="57.0461538" width="22.1846154" height="3.16923077"></rect>
                            </g>
                        </g>
                    </g>
                </g>
            </g>
        </g>
    </g>
</svg>