<?xml version="1.0" encoding="UTF-8"?>
<svg width="197px" height="197px" viewBox="0 0 197 197" version="1.1" xmlns="http://www.w3.org/2000/svg" xmlns:xlink="http://www.w3.org/1999/xlink">
    <!-- Generator: Sketch 52.6 (67491) - http://www.bohemiancoding.com/sketch -->
    <title>Group 8</title>
    <desc>Created with Sketch.</desc>
    <g id="Page-1" stroke="none" stroke-width="1" fill="none" fill-rule="evenodd">
        <g id="Categories" transform="translate(-903.000000, -151.000000)">
            <g id="Group-5" transform="translate(903.000000, 151.000000)">
                <g id="Group-2">
                    <g id="Group-4">
                        <g id="Group-3">
                            <g id="Group-8">
                                <rect id="Rectangle" fill="#393E46" x="8.52651283e-14" y="0" width="196.8" height="196.8" rx="98.4"></rect>
                                <g id="003-relax" transform="translate(55.000000, 55.000000)" fill="#29A19C">
                                    <path d="M43.75,87.5 C19.6255208,87.5 0,67.8744792 0,43.75 C0,19.6255208 19.6255208,0 43.75,0 C67.8744792,0 87.5,19.6255208 87.5,43.75 C87.5,67.8744792 67.8744792,87.5 43.75,87.5 Z M43.75,5.46875 C22.640625,5.46875 5.46875,22.640625 5.46875,43.75 C5.46875,64.859375 22.640625,82.03125 43.75,82.03125 C64.859375,82.03125 82.03125,64.859375 82.03125,43.75 C82.03125,22.640625 64.859375,5.46875 43.75,5.46875 Z" id="Shape" fill-rule="nonzero"></path>
                                    <path d="M44.0083088,72.8293413 C36.3328461,72.8293413 28.6537162,69.8723493 22.8118566,63.9583654 C21.7373652,62.8712905 21.7373652,61.1089678 22.8118566,60.021893 C23.886348,58.9348181 25.628271,58.9348181 26.7027625,60.021893 C31.3271096,64.700396 37.4733473,67.2752422 44.011976,67.2752422 C50.5506048,67.2752422 56.6968425,64.700396 61.3211896,60.021893 C62.3956811,58.9348181 64.1376041,58.9348181 65.2120955,60.021893 C66.2865869,61.1089678 66.2865869,62.8712905 65.2120955,63.9583654 C59.3629015,69.8723493 51.6837716,72.8293413 44.0083088,72.8293413 Z" id="Path"></path>
                                    <path d="M33.9258982,36.1526946 L17.4214072,36.1526946 C15.902994,36.1526946 14.6706587,34.9790419 14.6706587,33.5329341 C14.6706587,32.0868263 15.902994,30.9131737 17.4214072,30.9131737 L33.9258982,30.9131737 C35.4443114,30.9131737 36.6766467,32.0868263 36.6766467,33.5329341 C36.6766467,34.9790419 35.4443114,36.1526946 33.9258982,36.1526946 Z" id="Path"></path>
                                    <path d="M70.0785928,36.1526946 L53.5741018,36.1526946 C52.0556886,36.1526946 50.8233533,34.9790419 50.8233533,33.5329341 C50.8233533,32.0868263 52.0556886,30.9131737 53.5741018,30.9131737 L70.0785928,30.9131737 C71.597006,30.9131737 72.8293413,32.0868263 72.8293413,33.5329341 C72.8293413,34.9790419 71.597006,36.1526946 70.0785928,36.1526946 Z" id="Path"></path>
                                </g>
                            </g>
                        </g>
                    </g>
                </g>
            </g>
        </g>
    </g>
</svg>