<?xml version="1.0" encoding="UTF-8"?>
<svg width="197px" height="197px" viewBox="0 0 197 197" version="1.1" xmlns="http://www.w3.org/2000/svg" xmlns:xlink="http://www.w3.org/1999/xlink">
    <!-- Generator: Sketch 52.6 (67491) - http://www.bohemiancoding.com/sketch -->
    <title>Group 6</title>
    <desc>Created with Sketch.</desc>
    <g id="Page-1" stroke="none" stroke-width="1" fill="none" fill-rule="evenodd">
        <g id="Artists" transform="translate(-423.000000, -165.000000)">
            <g id="Group-5" transform="translate(423.000000, 165.000000)">
                <g id="Group-4">
                    <g id="Group-3">
                        <g id="Group-6">
                            <rect id="Rectangle" fill="#393E46" x="-3.69482223e-13" y="0" width="196.8" height="196.8" rx="98.4"></rect>
                            <g id="ic-person-24px" transform="translate(57.600000, 57.600000)" fill="#29A19C" fill-rule="nonzero">
                                <path d="M40.8085714,40.8085714 C52.0819393,40.8085714 61.2128571,31.6776536 61.2128571,20.4042857 C61.2128571,9.13091786 52.0819393,0 40.8085714,0 C29.5352036,0 20.4042857,9.13091786 20.4042857,20.4042857 C20.4042857,31.6776536 29.5352036,40.8085714 40.8085714,40.8085714 Z M40.8085714,51.0107143 C27.1887107,51.0107143 0,57.84615 0,71.415 L0,81.6171429 L81.6171429,81.6171429 L81.6171429,71.415 C81.6171429,57.84615 54.4284321,51.0107143 40.8085714,51.0107143 Z" id="Shape"></path>
                            </g>
                        </g>
                    </g>
                </g>
            </g>
        </g>
    </g>
</svg>