<?xml version="1.0" encoding="UTF-8"?>
<svg width="197px" height="197px" viewBox="0 0 197 197" version="1.1" xmlns="http://www.w3.org/2000/svg" xmlns:xlink="http://www.w3.org/1999/xlink">
    <!-- Generator: Sketch 52.6 (67491) - http://www.bohemiancoding.com/sketch -->
    <title>Group 7</title>
    <desc>Created with Sketch.</desc>
    <g id="Page-1" stroke="none" stroke-width="1" fill="none" fill-rule="evenodd">
        <g id="Categories" transform="translate(-663.000000, -151.000000)">
            <g id="Group-2" transform="translate(663.000000, 151.000000)">
                <g id="Group-4">
                    <g id="Group-3">
                        <g id="Group-7">
                            <rect id="Rectangle" fill="#393E46" x="8.52651283e-14" y="0" width="196.8" height="196.8" rx="98.4"></rect>
                            <g id="002-meditation" transform="translate(59.000000, 55.000000)" fill="#29A19C">
                                <path d="M77.4623871,65.0382042 L74.3621826,60.1455688 C73.8568306,59.3478202 72.8013993,59.1114998 72.0036507,59.6161843 C71.2065696,60.1215363 70.9702492,61.1776351 71.4749337,61.9747162 L74.5758057,66.8680192 C75.1272201,67.7385331 74.9950409,68.8954354 74.2613792,69.619751 C73.7987518,70.0763702 73.1625557,70.3046798 72.5143433,70.2466011 C71.8667985,70.1878548 71.2813377,69.8500633 70.9068298,69.3180084 L57.5427055,50.3115654 L52.2441864,37.6717568 L52.2441864,36.1864091 C52.2441864,35.2431297 51.4791488,34.4774247 50.535202,34.4774247 C49.5919228,34.4774247 48.8262177,35.2431297 48.8262177,36.1864091 L48.8262177,58.9606285 L29.5801164,58.9606285 L29.5801164,38.0369186 C29.5801164,38.031578 29.5801164,38.0255699 29.5801164,38.0195618 L29.5801164,36.1864091 C29.5801164,35.2431297 28.8150787,34.4774247 27.871132,34.4774247 C26.9271851,34.4774247 26.1621476,35.2431297 26.1621476,36.1864091 L26.1621476,37.6891136 L20.8716392,50.3115654 L7.50684734,69.3180084 C7.13300701,69.8493958 6.54687886,70.1878548 5.89933391,70.2459334 C5.25245667,70.3040123 4.61492534,70.0763702 4.15229797,69.6190834 C3.41863628,68.8954354 3.2864571,67.7385331 3.83787151,66.8673515 L15.7146454,48.1245994 C15.7887459,48.008442 15.8474923,47.884941 15.8915519,47.7547646 L20.9704399,32.6509477 C22.7595329,27.329731 27.7342796,23.7548828 33.3478927,23.7548828 L45.0657845,23.7548828 C50.6800651,23.7548828 55.6541443,27.329731 57.4432373,32.6509477 L62.5227928,47.7547646 C62.5661849,47.884941 62.625599,48.008442 62.6990318,48.1245994 L65.0195121,51.7875671 C65.3452873,52.30093 65.8987044,52.5819779 66.4648055,52.5819779 C66.7778969,52.5819779 67.094326,52.495861 67.378044,52.3162842 C68.1751251,51.8109322 68.4121132,50.7548332 67.9067611,49.9577523 L65.6964302,46.4696883 L60.6829643,31.5614701 C58.6288452,25.451851 53.2468795,21.1680412 46.957016,20.4457283 C48.8168717,18.5111045 49.9644279,15.8862114 49.9644279,12.9969596 L49.9644279,10.7572555 C49.9644279,4.8258781 45.1385498,-5.68434189e-14 39.2065047,-5.68434189e-14 C33.2751274,-5.68434189e-14 28.4492493,4.8258781 28.4492493,10.7572555 L28.4492493,12.9969596 C28.4492493,15.8862114 29.5961381,18.5111045 31.4566612,20.4457283 C25.1667977,21.1680412 19.784832,25.451851 17.7300454,31.5614701 L12.7172469,46.4696883 L0.950622559,65.0382042 C-0.455951733,67.2572135 -0.118827734,70.2072144 1.75170898,72.0523834 C2.6008606,72.8901864 3.68032451,73.4262467 4.83388896,73.6051559 C4.83322144,73.6071586 4.83255391,73.6084938 4.83255391,73.6098289 C3.929329,76.0257721 3.96404258,78.6733626 4.93001934,81.0646057 C6.53085713,85.0279808 10.3680611,87.5 14.4729614,87.5 C15.3568268,87.5 16.2540436,87.3851776 17.1432495,87.1455192 L39.2065047,81.2067985 L61.2697601,87.1455192 C62.1589661,87.3851776 63.0555153,87.5 63.9400482,87.5 C68.0436135,87.4993325 71.881485,85.0273132 73.4823226,81.0646057 C74.4482994,78.6733626 74.4830131,76.0257721 73.5804557,73.6098289 C73.5797882,73.6084938 73.5791207,73.6071586 73.578453,73.6051559 C74.7320174,73.4262467 75.8114815,72.8901864 76.6613007,72.0523834 C78.5318375,70.2078819 78.8689614,67.2578812 77.4623871,65.0382042 Z M31.867218,10.7572555 C31.867218,6.71043396 35.1596832,3.41796875 39.2071724,3.41796875 C43.2539939,3.41796875 46.5464592,6.71043396 46.5464592,10.7572555 L46.5464592,12.9969596 C46.5464592,17.0444489 43.2539939,20.3369141 39.2071724,20.3369141 C35.1596832,20.3369141 31.867218,17.0437813 31.867218,12.9969596 L31.867218,10.7572555 Z M54.461193,51.8035889 C54.5085907,51.917076 54.5686723,52.0258903 54.6394348,52.1260262 L64.2785073,65.83395 L52.2441864,59.697628 L52.2441864,46.5137482 L54.461193,51.8035889 Z M23.7742424,52.1260262 C23.8450051,52.0258903 23.9044189,51.917076 23.9518166,51.8035889 L26.1621476,46.5311051 L26.1621476,59.7016335 L14.1345024,65.83395 L23.7742424,52.1260262 Z M70.3140259,79.7848702 C69.0142631,83.0012321 65.5081749,84.746933 62.1582985,83.8457108 L44.8688507,79.1913985 C46.2540627,78.0992509 47.1172333,76.4102936 47.1172333,74.5664596 C47.1172333,74.5023727 47.1138955,74.4389534 47.1118927,74.3755341 L57.7957153,76.8989563 C57.9278947,76.9303322 58.0600739,76.9450187 58.1902504,76.9450187 C58.964634,76.9450187 59.6662521,76.4149666 59.8518372,75.6285667 C60.068798,74.7099876 59.5000267,73.7894059 58.5814476,73.5724449 L45.8007813,70.5536843 C45.6993103,70.5296517 45.5971718,70.5169678 45.4957009,70.5116272 C45.3061104,70.3133583 45.1031685,70.1244354 44.8835372,69.9508667 C43.4642792,68.8280106 41.6398049,68.4227944 39.8780823,68.8380241 L19.8322296,73.5724449 C18.9136505,73.7894059 18.3448792,74.7099876 18.56184,75.6285667 C18.7788009,76.5471458 19.6987152,77.1159172 20.6179618,76.8989563 L40.663147,72.1645355 C41.4028168,71.9896317 42.1678544,72.1598625 42.7626609,72.6311684 C43.3581352,73.1024742 43.6992645,73.8080978 43.6992645,74.5664596 C43.6992645,75.6806374 42.9475785,76.6606331 41.8721199,76.9503593 L38.8293266,77.7694702 C38.7932778,77.7774811 38.758564,77.7874947 38.7238503,77.7975082 L16.2553788,83.8450431 C12.9055023,84.746933 9.39941406,83.0012321 8.09965129,79.7848702 C6.75649639,76.4583588 8.15305706,72.720623 11.3487244,71.0910797 L28.4365654,62.3785972 L49.9771118,62.3785972 L67.0649528,71.0910797 C70.2606201,72.7212907 71.6578483,76.4583588 70.3140259,79.7848702 Z" id="Shape" fill-rule="nonzero"></path>
                                <path d="M68.2946206,57.0426941 C68.6284066,57.3771476 69.0663338,57.5447083 69.5049286,57.5447083 C69.9415206,57.5447083 70.3781128,57.3784829 70.7118988,57.0453644 L70.7753182,56.9826127 C71.4435577,56.3157082 71.444893,55.2335738 70.7779885,54.5653343 C70.1117515,53.8970947 69.0296173,53.8957597 68.3613778,54.5619965 L68.2979584,54.6254158 C67.6297188,55.2923202 67.6283836,56.3744545 68.2946206,57.0426941 Z" id="Path"></path>
                            </g>
                        </g>
                    </g>
                </g>
            </g>
        </g>
    </g>
</svg>