<?xml version="1.0" encoding="UTF-8"?>
<svg width="25px" height="25px" viewBox="0 0 25 25" version="1.1" xmlns="http://www.w3.org/2000/svg" xmlns:xlink="http://www.w3.org/1999/xlink">
    <!-- Generator: Sketch 52.6 (67491) - http://www.bohemiancoding.com/sketch -->
    <title>search</title>
    <desc>Created with Sketch.</desc>
    <g id="Page-1" stroke="none" stroke-width="1" fill="none" fill-rule="evenodd">
        <g id="search" fill="#FFFFFF">
            <path d="M9.5,19 C4.22222222,19 0,14.7777778 0,9.5 C0,4.22222222 4.22222222,0 9.5,0 C14.7777778,0 19,4.22222222 19,9.5 C19,14.7777778 14.7777778,19 9.5,19 Z M9.5,2.11111111 C5.38333333,2.11111111 2.11111111,5.38333333 2.11111111,9.5 C2.11111111,13.6166667 5.38333333,16.8888889 9.5,16.8888889 C13.6166667,16.8888889 16.8888889,13.6166667 16.8888889,9.5 C16.8888889,5.38333333 13.6166667,2.11111111 9.5,2.11111111 Z" id="Shape" fill-rule="nonzero"></path>
            <path d="M23.9,25 C23.57,25 23.35,24.89 23.13,24.67 L14.33,15.87 C13.89,15.43 13.89,14.77 14.33,14.33 C14.77,13.89 15.43,13.89 15.87,14.33 L24.67,23.13 C25.11,23.57 25.11,24.23 24.67,24.67 C24.45,24.89 24.23,25 23.9,25 Z" id="Path"></path>
        </g>
    </g>
</svg>