<?xml version="1.0" encoding="UTF-8"?>
<svg width="82px" height="82px" viewBox="0 0 82 82" version="1.1" xmlns="http://www.w3.org/2000/svg" xmlns:xlink="http://www.w3.org/1999/xlink">
    <!-- Generator: Sketch 52.6 (67491) - http://www.bohemiancoding.com/sketch -->
    <title>Group 5</title>
    <desc>Created with Sketch.</desc>
    <g id="Page-1" stroke="none" stroke-width="1" fill="none" fill-rule="evenodd">
        <g id="Group-5">
            <rect id="Rectangle" fill="#E6E6E6" x="0" y="0" width="82" height="82" rx="1.5"></rect>
            <g id="icon-music" transform="translate(24.000000, 24.500000)" fill="#29A19C" fill-rule="nonzero">
                <path d="M10.3501088,21.6261802 L10.3501088,6.89740601 C10.3507216,6.10482264 10.8915452,5.41468544 11.6611027,5.22446561 L32.3610063,0.050423152 C32.875672,-0.0767926568 33.4202609,0.0396777173 33.8378362,0.366270493 C34.2554116,0.692863269 34.4995866,1.1932985 34.4999963,1.72336355 L34.4999963,22.4195334 C34.5032003,25.5425903 32.407567,28.2782607 29.3910028,29.0888886 C26.3744386,29.8995165 23.1894548,28.5828829 21.6262558,25.8790365 C20.0630569,23.1751901 20.511598,19.7586318 22.7197649,17.5497287 C24.9279317,15.3408256 28.3448755,14.8906101 31.0500124,16.4521377 L31.0500124,3.930955 L13.8000928,8.24265705 L13.8000928,27.5935758 C13.8032967,30.7166328 11.7076635,33.4523032 8.69109926,34.2629311 C5.67453505,35.073559 2.48955122,33.7569253 0.926352267,31.0530789 C-0.636846686,28.3492325 -0.188305527,24.9326743 2.01986131,22.7237712 C4.22802815,20.5148681 7.64497189,20.0646526 10.3501088,21.6261802 Z M6.90012491,31.0429375 C8.80549842,31.0429375 10.3501088,29.4986057 10.3501088,27.5935758 C10.3501088,25.688546 8.80549842,24.1442142 6.90012491,24.1442142 C4.9947514,24.1442142 3.45014099,25.688546 3.45014099,27.5935758 C3.45014099,29.4986057 4.9947514,31.0429375 6.90012491,31.0429375 Z M27.6000285,25.868895 C29.505402,25.868895 31.0500124,24.3245632 31.0500124,22.4195334 C31.0500124,20.5145036 29.505402,18.9701717 27.6000285,18.9701717 C25.694655,18.9701717 24.1500445,20.5145036 24.1500445,22.4195334 C24.1500445,24.3245632 25.694655,25.868895 27.6000285,25.868895 Z" id="Shape"></path>
            </g>
        </g>
    </g>
</svg>