<?xml version="1.0" encoding="UTF-8"?>
<svg width="164px" height="164px" viewBox="0 0 164 164" version="1.1" xmlns="http://www.w3.org/2000/svg" xmlns:xlink="http://www.w3.org/1999/xlink">
    <!-- Generator: Sketch 52.6 (67491) - http://www.bohemiancoding.com/sketch -->
    <title>Group 7</title>
    <desc>Created with Sketch.</desc>
    <g id="Page-1" stroke="none" stroke-width="1" fill="none" fill-rule="evenodd">
        <g id="Library" transform="translate(-423.000000, -173.000000)">
            <g id="Group-4" transform="translate(423.000000, 173.000000)">
                <g id="Group-3">
                    <g id="Group-7">
                        <rect id="Rectangle" fill="#393E46" x="0" y="0" width="164" height="164" rx="3"></rect>
                        <g id="icon-music" transform="translate(48.000000, 49.000000)" fill="#29A19C" fill-rule="nonzero">
                            <path d="M20.7002177,43.2523604 L20.7002177,13.794812 C20.7014432,12.2096453 21.7830904,10.8293709 23.3222055,10.4489312 L64.7220126,0.100846304 C65.751344,-0.153585314 66.8405217,0.0793554347 67.6756724,0.732540986 C68.5108232,1.38572654 68.9991732,2.38659699 68.9999927,3.44672709 L68.9999927,44.8390668 C69.0064005,51.0851806 64.8151341,56.5565215 58.7820057,58.1777773 C52.7488772,59.7990331 46.3789096,57.1657658 43.2525117,51.758073 C40.1261138,46.3503802 41.0231961,39.5172636 45.4395297,35.0994574 C49.8558634,30.6816512 56.6897509,29.7812202 62.1000248,32.9042755 L62.1000248,7.86190999 L27.6001855,16.4853141 L27.6001855,55.1871517 C27.6065934,61.4332656 23.415327,66.9046064 17.3821985,68.5258622 C11.3490701,70.147118 4.97910244,67.5138507 1.85270453,62.1061579 C-1.27369337,56.6984651 -0.376611054,49.8653486 4.03972262,45.4475423 C8.45605629,41.0297361 15.2899438,40.1293051 20.7002177,43.2523604 Z M13.8002498,62.085875 C17.6109968,62.085875 20.7002177,58.9972113 20.7002177,55.1871517 C20.7002177,51.377092 17.6109968,48.2884284 13.8002498,48.2884284 C9.9895028,48.2884284 6.90028197,51.377092 6.90028197,55.1871517 C6.90028197,58.9972113 9.9895028,62.085875 13.8002498,62.085875 Z M55.200057,51.73779 C59.010804,51.73779 62.1000248,48.6491264 62.1000248,44.8390668 C62.1000248,41.0290071 59.010804,37.9403435 55.200057,37.9403435 C51.3893099,37.9403435 48.3000891,41.0290071 48.3000891,44.8390668 C48.3000891,48.6491264 51.3893099,51.73779 55.200057,51.73779 Z" id="Shape"></path>
                        </g>
                    </g>
                </g>
            </g>
        </g>
    </g>
</svg>